<?xml version="1.0" standalone="no"?><!DOCTYPE svg PUBLIC "-//W3C//DTD SVG 1.1//EN" "http://www.w3.org/Graphics/SVG/1.1/DTD/svg11.dtd"><svg class="icon" width="128px" height="128.00px" viewBox="0 0 1024 1024" version="1.1" xmlns="http://www.w3.org/2000/svg"><path d="M435.2 476.54c-68.42 49.47-182.92 24.35-182.92-76C252.28 286 372.52 279.86 404 300.9c0 0 25.62-109.6 126.77-109.6 0 0 83.27-13.3 126.77 109.6 47.17-22.77 152 2.91 152 96.56 0 96.08-104.57 132.84-173.35 82.25-103.28-75.89-200.99-3.17-200.99-3.17z" fill="#A3D1AA" /><path d="M733.77 296.72A98.94 98.94 0 0 1 763.2 315a13.62 13.62 0 1 0 18.2-20.28 126.12 126.12 0 0 0-37.52-23.32 13.62 13.62 0 0 0-10.11 25.3z" fill="#2A2B2B" /><path d="M823.46 388.93A125.51 125.51 0 0 0 812 336.34a13.62 13.62 0 1 0-24.78 11.34 99.29 99.29 0 0 1-135 129.89l-16.89-9A270.49 270.49 0 0 1 659.81 421a13.62 13.62 0 0 0-23-14.6c-26.47 41.71-40 81.5-41.27 121.62-1.15 35.49 7.1 66.77 15.08 97 6.91 26.2 13.43 50.94 14 77.77 1 46.25-9.76 81.2-32 103.88-16.11 16.46-37.76 25.94-64.49 28.3V336.3a13.62 13.62 0 1 0-27.25 0V835c-26.73-2.36-48.38-11.84-64.49-28.3-22.2-22.68-33-57.63-32-103.88 0.58-26.83 7.1-51.57 14-77.77 8-30.25 16.23-61.53 15.08-97-1.3-40.12-14.8-79.91-41.27-121.62a13.62 13.62 0 0 0-23 14.6 273.68 273.68 0 0 1 23.51 45.24l-15.59 8.63-0.12 0.1a99.05 99.05 0 0 1-49.52 13.23q-3.93 0-7.78-0.3a13.64 13.64 0 0 0-5.35-0.57 99.26 99.26 0 0 1 13.13-197.65A98.19 98.19 0 0 1 371 299.86a13.62 13.62 0 0 0 19.48-10.26 123 123 0 0 1 243.38 0 13.62 13.62 0 0 0 19.48 10.26A98.2 98.2 0 0 1 697 289.67a13.62 13.62 0 1 0 0-27.25 124.54 124.54 0 0 0-39.55 6.4 150.23 150.23 0 0 0-290.38 0 124.53 124.53 0 0 0-39.55-6.4A126.65 126.65 0 0 0 201 388.93c0 63.82 47.51 116.75 109 125.29 16.43 15.84 24.9 34.89 26.55 59.57 1.78 26.63-4.87 56-11.61 81.31-16.75 62.79-11.24 114.68 15.94 150.07 24.36 31.71 64.9 48.47 117.23 48.47a13.66 13.66 0 0 0 1.93-0.15c15.31 5.76 32.38 8.89 50.85 9.26a13.35 13.35 0 0 0 7.32 0 152.73 152.73 0 0 0 50.6-9.16c0.38 0 0.76 0.06 1.15 0.06 52.33 0 92.87-16.76 117.23-48.47 27.18-35.39 32.7-87.28 15.94-150.07-6.74-25.26-13.39-54.68-11.61-81.31 1.68-25 10.38-44.28 27.29-60.25 59.38-10.39 104.65-62.31 104.65-124.62z m-461 399.64c-21.83-28.42-25.71-72.14-11.22-126.45 7.31-27.42 14.52-59.56 12.47-90.15-1.48-22.14-7.57-41.26-18.48-57.8a126.05 126.05 0 0 0 45.27-15.56l10.8-6c11.51 46.94 1.37 85.43-9.18 125.42-7 26.58-14.26 54.07-14.9 84.13-1.09 50.63 10.66 90.39 34.94 118.33-21.24-6.07-38.08-16.81-49.68-31.91z m303.1 0c-11.35 14.77-27.71 25.38-48.31 31.54 24-27.92 35.68-67.55 34.59-117.93-0.65-30.06-7.9-57.55-14.91-84.13-10.36-39.29-20.34-77.12-9.77-122.95l12.39 6.59 0.22 0.12a124.66 124.66 0 0 0 42.71 12.82C671.8 531.07 665.81 550 664.34 572c-2 30.58 5.15 62.73 12.47 90.15 14.48 54.28 10.6 98.01-11.23 126.43z" fill="#2A2B2B" /></svg>