<?xml version="1.0" standalone="no"?><!DOCTYPE svg PUBLIC "-//W3C//DTD SVG 1.1//EN" "http://www.w3.org/Graphics/SVG/1.1/DTD/svg11.dtd"><svg class="icon" width="128px" height="128.00px" viewBox="0 0 1024 1024" version="1.1" xmlns="http://www.w3.org/2000/svg"><path d="M854.528 954.368H190.976c-71.168 0-129.024-57.856-129.024-129.024v-233.472c0-11.264 9.216-20.48 20.48-20.48s20.48 9.216 20.48 20.48v233.472c0 48.64 39.424 88.064 88.064 88.064h663.552c48.64 0 88.064-39.424 88.064-88.064v-233.472c0-11.264 9.216-20.48 20.48-20.48s20.48 9.216 20.48 20.48v233.472c0 70.656-57.856 129.024-129.024 129.024z" fill="#cdcdcd" /><path d="M712.192 867.328c-100.352 0-182.272-81.92-182.272-182.272s81.92-182.272 182.272-182.272 182.272 81.92 182.272 182.272-81.92 182.272-182.272 182.272z m0-323.072c-77.824 0-141.312 63.488-141.312 141.312 0 77.824 63.488 141.312 141.312 141.312s141.312-63.488 141.312-141.312c0-77.824-63.488-141.312-141.312-141.312z" fill="#cdcdcd" /><path d="M712.192 780.8c-7.168 0-13.312-6.144-13.312-13.312v-164.352c0-7.168 6.144-13.312 13.312-13.312 7.168 0 13.312 6.144 13.312 13.312v164.352c0 7.68-6.144 13.312-13.312 13.312z" fill="#cdcdcd" /><path d="M778.752 683.008c-3.584 0-6.656-1.536-9.216-4.096l-66.56-66.56c-5.12-5.12-5.12-13.824 0-18.944s13.824-5.12 18.944 0l66.56 66.56c5.12 5.12 5.12 13.824 0 18.944-3.072 2.56-6.656 4.096-9.728 4.096z" fill="#cdcdcd" /><path d="M645.632 683.008c-3.584 0-6.656-1.536-9.216-4.096-5.12-5.12-5.12-13.824 0-18.944l66.56-66.56c5.12-5.12 13.824-5.12 18.944 0s5.12 13.824 0 18.944l-66.56 66.56c-2.56 2.56-6.144 4.096-9.728 4.096z" fill="#cdcdcd" /><path d="M512.512 824.832h-0.512c-102.4-3.584-198.144-46.08-269.824-119.808-71.68-74.24-111.104-171.52-111.104-274.432C131.072 212.992 308.224 35.84 525.824 35.84c217.6 0 394.752 177.152 394.752 394.752 0 35.328-4.608 70.144-13.824 103.936-3.072 10.752-14.336 17.408-25.088 14.336-10.752-3.072-17.408-14.336-14.336-25.088 8.192-30.208 12.288-61.44 12.288-93.184 0-195.072-158.72-353.792-353.792-353.792-195.072 0-353.792 158.72-353.792 353.792 0 191.488 150.016 347.136 341.504 353.792 11.264 0.512 19.968 9.728 19.968 20.992-1.024 10.752-10.24 19.456-20.992 19.456z" fill="#cdcdcd" /><path d="M421.376 587.264c-3.584 0-7.168-1.024-10.24-2.56-6.144-3.584-10.24-10.24-10.24-17.92V272.896c0-7.168 4.096-13.824 10.24-17.92s14.336-3.584 20.48 0L686.08 401.92c6.144 3.584 10.24 10.24 10.24 17.92s-4.096 13.824-10.24 17.92l-254.464 146.944c-3.072 1.536-6.656 2.56-10.24 2.56z m20.48-279.04v222.72L634.88 419.84 441.856 308.224z" fill="#cdcdcd" /></svg>