<?xml version="1.0" standalone="no"?><!DOCTYPE svg PUBLIC "-//W3C//DTD SVG 1.1//EN" "http://www.w3.org/Graphics/SVG/1.1/DTD/svg11.dtd"><svg class="icon" width="128px" height="128.00px" viewBox="0 0 1024 1024" version="1.1" xmlns="http://www.w3.org/2000/svg"><path d="M998.162542 368.639918c0 50.89925-9.987468 100.631932-29.67588 147.826813-17.304108 41.4746-42.712801 82.34545-75.519997 121.466446-61.336974 73.15616-140.325979 131.402749-209.511711 178.720428-9.332553 6.375198-22.062482 3.990894-28.447912-5.341658-6.385431-9.322319-3.990894-22.062482 5.341658-28.447912 66.883293-45.75202 143.099139-101.870132 201.25363-171.219593 64.345494-76.758198 95.627964-156.248623 95.627964-243.004523 0-124.229372-101.071953-225.291093-225.291093-225.291093-75.622328 0-145.8109 37.708833-187.756221 100.877525l-17.048281 25.674753-17.048281-25.674753c-41.945321-63.168692-112.133893-100.877525-187.756221-100.877525-124.219139 0-225.291093 101.06172-225.291093 225.291093 0 215.712947 197.764156 348.108303 342.173127 444.769806 39.949874 26.749224 74.455759 49.845245 101.020788 71.989591 8.68787 7.234775 9.864672 20.138666 2.619664 28.816303-4.042059 4.860704-9.864672 7.367805-15.728216 7.367805-4.625344 0-9.260921-1.555425-13.088086-4.748141-24.927739-20.762883-58.604746-43.306318-97.592712-69.410859-72.644507-48.627511-163.05361-109.145839-234.17339-185.750541-39.571251-42.620703-69.001537-85.282339-89.979314-130.430608-24.006763-51.697429-36.184107-106.403379-36.184107-162.603355 0-71.109548 27.690666-137.962142 77.986165-188.247408 50.285267-50.285267 117.137861-77.975932 188.237175-77.975932 79.787184 0 154.447605 35.508725 204.804503 96.231715 50.356898-60.72299 125.017318-96.231715 204.804503-96.231715 71.099315 0 137.962142 27.690666 188.237175 77.975932C970.471876 230.677776 998.162542 297.53037 998.162542 368.639918z" fill="#ffffff" /></svg>